<svg width="251.6" height="72.2" viewBox="0 0 251.6 72.2" xmlns="http://www.w3.org/2000/svg"><g id="svgGroup" stroke-linecap="round" fill-rule="evenodd" font-size="9pt" stroke="#000" stroke-width="0.25mm" fill="#000" style="stroke:#000;stroke-width:0.25mm;fill:#000"><path d="M 77.7 61.6 L 115.2 61.6 L 115.2 71.5 L 66.5 71.5 L 66.5 0.5 L 114.3 0.5 L 114.3 10.4 L 77.7 10.4 L 77.7 30.6 L 109.4 30.6 L 109.4 39.9 L 77.7 39.9 L 77.7 61.6 Z M 52.5 8 L 47.4 17.2 Q 46.72 16.453 45.625 15.636 A 23.366 23.366 0 0 0 44.5 14.85 Q 42.6 13.6 40 12.5 Q 37.4 11.4 34.4 10.7 Q 31.4 10 28.2 10 Q 21.467 10 18.065 12.406 A 8.771 8.771 0 0 0 17.8 12.6 Q 14.4 15.2 14.4 19.8 Q 14.4 23.2 16.3 25.15 Q 17.693 26.58 20.163 27.661 A 22.903 22.903 0 0 0 22.1 28.4 A 98.354 98.354 0 0 0 25.27 29.393 Q 28.189 30.257 31.9 31.2 A 87.815 87.815 0 0 1 37.836 32.812 Q 41.419 33.928 44.4 35.25 A 23.161 23.161 0 0 1 48.559 37.603 A 17.08 17.08 0 0 1 52.5 41.5 Q 55.3 45.4 55.3 51.8 A 24.462 24.462 0 0 1 54.917 56.238 A 17.581 17.581 0 0 1 53.3 61.1 Q 51.3 65 47.7 67.45 Q 44.1 69.9 39.4 71.05 A 40.47 40.47 0 0 1 32.282 72.109 A 48.065 48.065 0 0 1 29.3 72.2 Q 24 72.2 18.75 71.1 Q 13.5 70 8.75 67.85 Q 4 65.7 0 62.6 L 5.1 53 A 13.897 13.897 0 0 0 6.13 53.923 Q 7.242 54.833 8.85 55.85 Q 11.3 57.4 14.55 58.8 A 43.09 43.09 0 0 0 19.302 60.512 A 51.226 51.226 0 0 0 21.65 61.15 Q 25.5 62.1 29.5 62.1 A 30.709 30.709 0 0 0 33.29 61.882 Q 37.282 61.384 39.75 59.75 Q 43.031 57.578 43.28 53.655 A 10.356 10.356 0 0 0 43.3 53 A 9.112 9.112 0 0 0 42.956 50.433 A 6.951 6.951 0 0 0 41 47.25 Q 39.313 45.673 36.497 44.446 A 28.631 28.631 0 0 0 34.3 43.6 Q 30.931 42.452 26.566 41.303 A 176.974 176.974 0 0 0 23.8 40.6 A 94.467 94.467 0 0 1 18.873 39.126 Q 15.038 37.856 12.1 36.45 A 20.728 20.728 0 0 1 8.553 34.32 A 14.924 14.924 0 0 1 5.05 30.65 Q 2.907 27.412 2.718 22.552 A 24.574 24.574 0 0 1 2.7 21.6 A 23.928 23.928 0 0 1 3.348 15.899 A 18.101 18.101 0 0 1 6.1 9.75 A 20.627 20.627 0 0 1 14.539 2.807 A 24.911 24.911 0 0 1 15.35 2.45 Q 21.2 0 28.5 0 A 39.433 39.433 0 0 1 35.419 0.591 A 35.17 35.17 0 0 1 37.6 1.05 A 41.394 41.394 0 0 1 44.942 3.569 A 38.083 38.083 0 0 1 45.65 3.9 A 42.737 42.737 0 0 1 51.315 7.155 A 38.421 38.421 0 0 1 52.5 8 Z M 138 71.5 L 126.8 71.5 L 126.8 0.5 L 157.7 0.5 A 20.026 20.026 0 0 1 164.121 1.511 A 18.469 18.469 0 0 1 166.5 2.5 Q 170.5 4.5 173.45 7.8 Q 176.4 11.1 178.05 15.2 Q 179.7 19.3 179.7 23.6 Q 179.7 28.3 178 32.6 Q 176.3 36.9 173.15 40 Q 170 43.1 165.8 44.5 L 182.5 71.5 L 169.9 71.5 L 154.5 46.8 L 138 46.8 L 138 71.5 Z M 185.6 71.5 L 213.4 0.5 L 224 0.5 L 251.6 71.5 L 239.8 71.5 L 232.3 52.2 L 204.9 52.2 L 197.5 71.5 L 185.6 71.5 Z M 138 10.4 L 138 36.9 L 157.6 36.9 Q 160.7 36.9 163.1 35.1 A 11.869 11.869 0 0 0 166.214 31.568 A 14.691 14.691 0 0 0 166.9 30.25 A 15.567 15.567 0 0 0 168.288 24.27 A 18.13 18.13 0 0 0 168.3 23.6 A 14.684 14.684 0 0 0 167.743 19.496 A 12.787 12.787 0 0 0 166.7 16.95 A 14.162 14.162 0 0 0 163.98 13.37 A 13.005 13.005 0 0 0 162.55 12.2 Q 160 10.4 157 10.4 L 138 10.4 Z M 206.9 43.9 L 230.1 43.9 L 218.7 12.8 L 206.9 43.9 Z" vector-effect="non-scaling-stroke"/></g></svg>