<svg width="303.3" height="92.101" viewBox="0 0 303.3 92.101" xmlns="http://www.w3.org/2000/svg"><g id="svgGroup" stroke-linecap="round" fill-rule="evenodd" font-size="9pt" stroke="#000" stroke-width="0.25mm" fill="#000" style="stroke:#000;stroke-width:0.25mm;fill:#000"><path d="M 265.8 81.7 L 303.3 81.7 L 303.3 91.6 L 254.6 91.6 L 254.6 20.6 L 302.4 20.6 L 302.4 30.5 L 265.8 30.5 L 265.8 50.7 L 297.5 50.7 L 297.5 60 L 265.8 60 L 265.8 81.7 Z M 178.4 56.6 L 178.4 20.6 L 189.6 20.6 L 189.6 56.6 Q 189.6 61.5 190.6 66.05 A 27.777 27.777 0 0 0 192.43 71.613 A 24.122 24.122 0 0 0 193.8 74.2 Q 196 77.8 199.75 79.9 A 15.714 15.714 0 0 0 204.192 81.531 Q 206.401 82 209 82 Q 214.6 82 218.35 79.85 Q 222.1 77.7 224.25 74.05 Q 226.4 70.4 227.4 65.9 Q 228.4 61.4 228.4 56.6 L 228.4 20.6 L 239.7 20.6 L 239.7 56.6 A 54.205 54.205 0 0 1 238.756 66.863 A 47.867 47.867 0 0 1 237.95 70.35 A 34.656 34.656 0 0 1 234.835 78.127 A 30.312 30.312 0 0 1 232.55 81.65 Q 228.9 86.5 223.1 89.3 Q 217.3 92.1 209 92.1 Q 201.612 92.1 196.225 89.909 A 23.386 23.386 0 0 1 194.65 89.2 A 25.434 25.434 0 0 1 187.298 83.808 A 23.922 23.922 0 0 1 185.25 81.3 A 33.738 33.738 0 0 1 180.492 71.478 A 38.944 38.944 0 0 1 180.05 69.9 Q 178.4 63.5 178.4 56.6 Z M 25.598 91.097 A 34.045 34.045 0 0 0 34 92.1 A 36.491 36.491 0 0 0 34.484 92.097 A 31.68 31.68 0 0 0 47.55 89.2 Q 53.8 86.3 58.4 81.25 Q 63 76.2 65.55 69.75 Q 68.1 63.3 68.1 56.2 Q 68.1 49.5 65.65 43.1 Q 63.2 36.7 58.75 31.5 Q 54.3 26.3 48.05 23.2 A 28.825 28.825 0 0 0 43.489 21.403 A 32.274 32.274 0 0 0 34.2 20.1 A 35.889 35.889 0 0 0 33.745 20.103 A 31.237 31.237 0 0 0 20.65 23.05 Q 14.4 26 9.8 31.05 Q 5.2 36.1 2.6 42.55 Q 0 49 0 56.1 Q 0 62.9 2.45 69.35 Q 4.9 75.8 9.4 80.95 Q 13.9 86.1 20.1 89.1 A 28.926 28.926 0 0 0 25.598 91.097 Z M 125.498 91.081 A 33.516 33.516 0 0 0 133.9 92.1 A 36.491 36.491 0 0 0 134.384 92.097 A 31.68 31.68 0 0 0 147.45 89.2 Q 153.7 86.3 158.3 81.25 Q 162.9 76.2 165.45 69.75 Q 168 63.3 168 56.2 Q 168 49.5 165.55 43.1 Q 163.1 36.7 158.65 31.5 Q 154.2 26.3 147.95 23.2 A 28.825 28.825 0 0 0 143.389 21.403 A 32.274 32.274 0 0 0 134.1 20.1 A 35.889 35.889 0 0 0 133.645 20.103 A 31.237 31.237 0 0 0 120.55 23.05 Q 114.3 26 109.7 31.05 Q 105.1 36.1 102.5 42.55 Q 99.9 49 99.9 56.1 Q 99.9 62.9 102.35 69.35 Q 104.8 75.8 109.3 80.9 Q 113.8 86 120 89.05 A 28.621 28.621 0 0 0 125.498 91.081 Z M 134 82 Q 139.4 82 143.6 79.8 Q 147.8 77.6 150.65 73.85 Q 153.5 70.1 155 65.45 Q 156.5 60.8 156.5 56.1 Q 156.5 51.1 154.95 46.4 A 25.213 25.213 0 0 0 150.77 38.554 A 24.123 24.123 0 0 0 150.4 38.1 Q 147.4 34.5 143.25 32.35 A 19.351 19.351 0 0 0 135.571 30.252 A 23.199 23.199 0 0 0 134 30.2 Q 128.6 30.2 124.4 32.4 Q 120.2 34.6 117.3 38.35 Q 114.4 42.1 112.85 46.7 Q 111.3 51.3 111.3 56.1 Q 111.3 61.1 112.9 65.8 A 26.787 26.787 0 0 0 116.476 72.83 A 24.918 24.918 0 0 0 117.45 74.1 Q 120.4 77.7 124.6 79.85 A 19.724 19.724 0 0 0 132.085 81.924 A 23.881 23.881 0 0 0 134 82 Z M 11.4 56.1 Q 11.4 61.1 13 65.8 Q 14.6 70.5 17.55 74.15 Q 20.5 77.8 24.7 79.9 A 20.039 20.039 0 0 0 32.029 81.913 A 24.345 24.345 0 0 0 34.1 82 Q 39.5 82 43.7 79.8 Q 47.9 77.6 50.75 73.85 Q 53.6 70.1 55.1 65.45 Q 56.6 60.8 56.6 56.1 Q 56.6 51.1 55.05 46.45 Q 53.5 41.8 50.5 38.15 Q 47.5 34.5 43.35 32.4 A 19.665 19.665 0 0 0 35.825 30.362 A 23.653 23.653 0 0 0 34.1 30.3 Q 28.7 30.3 24.5 32.5 Q 20.3 34.7 17.4 38.4 Q 14.5 42.1 12.95 46.7 Q 11.4 51.3 11.4 56.1 Z M 157 91.6 L 135.4 66.9 L 146.2 66.9 L 167.8 91.6 L 157 91.6 Z M 47 0 L 38 13.2 L 30.8 11 L 36.5 0 L 47 0 Z" vector-effect="non-scaling-stroke"/></g></svg>