<svg width="289.701" height="73.401" viewBox="0 0 289.701 73.401" xmlns="http://www.w3.org/2000/svg"><g id="svgGroup" stroke-linecap="round" fill-rule="evenodd" font-size="9pt" stroke="#000" stroke-width="0mm" fill="#000" style="stroke:#000;stroke-width:0mm;fill:#000"><path d="M 159.101 64.501 L 159.101 72.401 L 119.201 72.401 L 119.201 1.001 L 159.101 1.001 L 159.101 8.901 L 128.201 8.901 L 128.201 31.201 L 157.301 31.201 L 157.301 39.001 L 128.201 39.001 L 128.201 64.501 L 159.101 64.501 Z M 238.701 1.001 L 258.401 1.001 A 55.97 55.97 0 0 1 265.332 1.4 Q 273.051 2.366 277.552 5.67 A 16.175 16.175 0 0 1 278.051 6.051 A 16.16 16.16 0 0 1 283.709 15.128 Q 284.379 17.846 284.4 21.091 A 32.515 32.515 0 0 1 284.401 21.301 A 25.72 25.72 0 0 1 284.105 25.309 Q 283.613 28.426 282.301 30.801 A 18.549 18.549 0 0 1 279.248 34.923 A 16.295 16.295 0 0 1 276.951 36.851 Q 273.701 39.101 270.101 40.401 L 289.701 72.401 L 279.201 72.401 L 261.901 42.901 L 247.701 42.901 L 247.701 72.401 L 238.701 72.401 L 238.701 1.001 Z M 51.201 62.701 L 51.201 70.501 Q 47.201 72.001 42.951 72.701 A 47.684 47.684 0 0 1 39.225 73.154 Q 37.217 73.324 34.933 73.377 A 91.919 91.919 0 0 1 32.801 73.401 A 43.764 43.764 0 0 1 24.834 72.714 Q 20.043 71.827 16.169 69.794 A 26.102 26.102 0 0 1 14.601 68.901 A 27.62 27.62 0 0 1 3.824 56.488 A 33.498 33.498 0 0 1 3.651 56.101 A 41.708 41.708 0 0 1 0.75 46.155 Q 0.002 41.684 0.001 36.621 A 70.154 70.154 0 0 1 0.001 36.601 A 50.241 50.241 0 0 1 0.927 26.736 A 38.801 38.801 0 0 1 3.951 17.551 Q 7.901 9.301 15.601 4.651 A 31.425 31.425 0 0 1 25.908 0.768 A 43.706 43.706 0 0 1 34.301 0.001 A 51.284 51.284 0 0 1 44.179 0.908 A 38.359 38.359 0 0 1 54.001 4.201 L 50.401 11.801 A 51.67 51.67 0 0 0 46.217 10.125 A 65.004 65.004 0 0 0 43.051 9.101 Q 39.001 7.901 34.201 7.901 A 27.624 27.624 0 0 0 26.265 8.984 A 21.076 21.076 0 0 0 16.101 15.601 A 25.917 25.917 0 0 0 10.867 25.685 Q 9.8 29.527 9.566 34.089 A 51.079 51.079 0 0 0 9.501 36.701 Q 9.501 46.864 13.092 53.786 A 24.53 24.53 0 0 0 15.651 57.751 A 19.738 19.738 0 0 0 26.993 64.739 A 31.154 31.154 0 0 0 34.101 65.501 A 49.467 49.467 0 0 0 40.599 65.087 A 43.049 43.049 0 0 0 43.001 64.701 Q 47.201 63.901 51.201 62.701 Z M 228.901 72.401 L 219.601 72.401 L 211.001 50.301 L 182.701 50.301 L 174.201 72.401 L 165.101 72.401 L 193.001 0.701 L 201.101 0.701 L 228.901 72.401 Z M 107.001 72.401 L 66.801 72.401 L 66.801 1.001 L 75.801 1.001 L 75.801 64.401 L 107.001 64.401 L 107.001 72.401 Z M 257.901 8.801 L 247.701 8.801 L 247.701 35.301 L 258.401 35.301 A 34.791 34.791 0 0 0 262.923 35.028 Q 267.914 34.371 270.755 32.136 A 9.984 9.984 0 0 0 271.101 31.851 Q 274.988 28.498 275.097 22.074 A 21.991 21.991 0 0 0 275.101 21.701 A 18.334 18.334 0 0 0 274.768 18.084 Q 274.344 15.977 273.377 14.394 A 8.8 8.8 0 0 0 270.901 11.751 Q 266.701 8.801 257.901 8.801 Z M 208.301 42.301 L 200.301 20.701 Q 200.001 19.901 199.301 17.801 A 112.177 112.177 0 0 1 197.991 13.591 A 122.093 122.093 0 0 1 197.951 13.451 Q 197.453 11.728 197.102 10.621 A 44.761 44.761 0 0 0 196.901 10.001 Q 196.201 13.101 195.301 16.051 Q 194.612 18.309 194.098 19.835 A 61.955 61.955 0 0 1 193.801 20.701 L 185.701 42.301 L 208.301 42.301 Z" vector-effect="non-scaling-stroke"/></g></svg>