<svg width="222.2" height="71.401" viewBox="0 0 222.2 71.401" xmlns="http://www.w3.org/2000/svg"><g id="svgGroup" stroke-linecap="round" fill-rule="evenodd" font-size="9pt" stroke="#000" stroke-width="0mm" fill="#000" style="stroke:#000;stroke-width:0mm;fill:#000"><path d="M 39.9 63.501 L 39.9 71.401 L 0 71.401 L 0 0.001 L 39.9 0.001 L 39.9 7.901 L 9 7.901 L 9 30.201 L 38.1 30.201 L 38.1 38.001 L 9 38.001 L 9 63.501 L 39.9 63.501 Z M 155.5 63.501 L 155.5 71.401 L 115.6 71.401 L 115.6 0.001 L 155.5 0.001 L 155.5 7.901 L 124.6 7.901 L 124.6 30.201 L 153.7 30.201 L 153.7 38.001 L 124.6 38.001 L 124.6 63.501 L 155.5 63.501 Z M 96.4 0.001 L 105.9 0.001 L 80.4 71.401 L 71.4 71.401 L 45.9 0.001 L 55.3 0.001 L 71.4 45.801 A 137.021 137.021 0 0 1 73.042 50.577 A 108.299 108.299 0 0 1 74.1 54.051 A 100.006 100.006 0 0 1 75.319 58.726 A 84.12 84.12 0 0 1 75.9 61.401 A 91.733 91.733 0 0 1 76.931 56.869 A 110.878 110.878 0 0 1 77.7 54.001 Q 78.8 50.101 80.4 45.601 L 96.4 0.001 Z M 171.2 0.001 L 190.9 0.001 A 55.97 55.97 0 0 1 197.831 0.4 Q 205.55 1.366 210.052 4.67 A 16.175 16.175 0 0 1 210.55 5.051 A 16.16 16.16 0 0 1 216.208 14.128 Q 216.878 16.846 216.899 20.091 A 32.515 32.515 0 0 1 216.9 20.301 A 25.72 25.72 0 0 1 216.605 24.308 Q 216.113 27.426 214.8 29.801 A 18.549 18.549 0 0 1 211.748 33.923 A 16.295 16.295 0 0 1 209.45 35.851 Q 206.2 38.101 202.6 39.401 L 222.2 71.401 L 211.7 71.401 L 194.4 41.901 L 180.2 41.901 L 180.2 71.401 L 171.2 71.401 L 171.2 0.001 Z M 190.4 7.801 L 180.2 7.801 L 180.2 34.301 L 190.9 34.301 A 34.791 34.791 0 0 0 195.422 34.028 Q 200.414 33.371 203.254 31.136 A 9.984 9.984 0 0 0 203.6 30.851 Q 207.488 27.497 207.597 21.074 A 21.991 21.991 0 0 0 207.6 20.701 A 18.334 18.334 0 0 0 207.268 17.083 Q 206.843 14.977 205.876 13.394 A 8.8 8.8 0 0 0 203.4 10.751 Q 199.2 7.801 190.4 7.801 Z" vector-effect="non-scaling-stroke"/></g></svg>