<svg width="155" height="73.4" viewBox="0 0 155 73.4" xmlns="http://www.w3.org/2000/svg"><g id="svgGroup" stroke-linecap="round" fill-rule="evenodd" font-size="9pt" stroke="#000" stroke-width="0mm" fill="#000" style="stroke:#000;stroke-width:0mm;fill:#000"><path d="M 99.4 64.5 L 99.4 72.4 L 59.5 72.4 L 59.5 1 L 99.4 1 L 99.4 8.9 L 68.5 8.9 L 68.5 31.2 L 97.6 31.2 L 97.6 39 L 68.5 39 L 68.5 64.5 L 99.4 64.5 Z M 155 64.5 L 155 72.4 L 115.1 72.4 L 115.1 1 L 155 1 L 155 8.9 L 124.1 8.9 L 124.1 31.2 L 153.2 31.2 L 153.2 39 L 124.1 39 L 124.1 64.5 L 155 64.5 Z M 0 70 L 0 61.4 A 39.379 39.379 0 0 0 3.214 62.651 Q 4.814 63.199 6.654 63.706 A 77.807 77.807 0 0 0 8.95 64.3 Q 14.3 65.6 20 65.6 Q 28 65.6 32.05 62.5 A 9.856 9.856 0 0 0 36.037 55.391 A 12.872 12.872 0 0 0 36.1 54.1 Q 36.1 50.665 34.655 48.29 A 8.651 8.651 0 0 0 34.6 48.2 A 9.802 9.802 0 0 0 33.026 46.308 Q 31.617 44.967 29.45 43.75 A 39.352 39.352 0 0 0 26.89 42.445 Q 23.976 41.079 19.888 39.61 A 129.367 129.367 0 0 0 19.3 39.4 A 52.527 52.527 0 0 1 13.57 36.954 Q 10.775 35.546 8.587 33.933 A 24.231 24.231 0 0 1 5.55 31.3 A 15.956 15.956 0 0 1 1.501 23.714 Q 0.9 21.183 0.9 18.2 Q 0.9 12.5 3.8 8.45 A 17.824 17.824 0 0 1 9.632 3.292 A 22.451 22.451 0 0 1 11.85 2.2 A 26.839 26.839 0 0 1 18.512 0.363 A 35.612 35.612 0 0 1 23.7 0 A 55.036 55.036 0 0 1 29.938 0.339 A 43.187 43.187 0 0 1 34.5 1.1 A 50.495 50.495 0 0 1 40.001 2.653 A 41.229 41.229 0 0 1 43.4 4 L 40.6 11.7 A 50.396 50.396 0 0 0 35.205 9.737 A 59.307 59.307 0 0 0 32.55 9 Q 28.2 7.9 23.5 7.9 A 25.259 25.259 0 0 0 19.813 8.151 Q 15.791 8.746 13.4 10.75 A 9.226 9.226 0 0 0 10.025 17.506 A 12.367 12.367 0 0 0 10 18.3 A 14.298 14.298 0 0 0 10.229 20.93 Q 10.586 22.838 11.5 24.3 Q 12.744 26.29 15.293 27.936 A 20.275 20.275 0 0 0 16.4 28.6 A 44.307 44.307 0 0 0 19.021 29.942 Q 21.794 31.256 25.6 32.7 A 76.241 76.241 0 0 1 30.654 34.741 Q 32.99 35.789 34.97 36.902 A 42.039 42.039 0 0 1 36.25 37.65 Q 40.6 40.3 42.85 44 Q 44.899 47.37 45.082 52.315 A 26.641 26.641 0 0 1 45.1 53.3 A 20.957 20.957 0 0 1 44.13 59.835 A 16.836 16.836 0 0 1 38.2 68.1 A 23.989 23.989 0 0 1 29.881 72.137 Q 25.313 73.4 19.6 73.4 A 70.507 70.507 0 0 1 13.135 73.115 A 56.513 56.513 0 0 1 8.5 72.5 A 45.868 45.868 0 0 1 4.914 71.727 Q 2.125 71 0 70 Z" vector-effect="non-scaling-stroke"/></g></svg>